<svg width="24" height="24" viewBox="0 0 24 24" fill="none" xmlns="http://www.w3.org/2000/svg">
<path d="M11.8224 6.41512C13.0416 6.41512 14.03 5.42676 14.03 4.20756C14.03 2.98836 13.0416 2 11.8224 2C10.6032 2 9.61485 2.98836 9.61485 4.20756C9.61485 5.42676 10.6032 6.41512 11.8224 6.41512ZM11.8224 6.41512V15.2454H16.2375L20.6527 20.7643M11.8224 10.8302H17.3413M7.40729 11.3821C6.61642 11.7097 5.91258 12.2167 5.35141 12.863C4.79024 13.5094 4.38712 14.2775 4.17392 15.1065C3.96072 15.9356 3.94328 16.8028 4.12299 17.6397C4.3027 18.4767 4.67463 19.2603 5.20936 19.9287C5.7441 20.5972 6.427 21.132 7.20406 21.4911C7.98112 21.8501 8.83105 22.0235 9.68666 21.9975C10.5423 21.9714 11.3801 21.7467 12.1339 21.3412C12.8877 20.9356 13.5368 20.3602 14.03 19.6605" stroke="white" stroke-width="2" stroke-linecap="round" stroke-linejoin="round"/>
</svg>
